<svg width="200" height="200" viewBox="0 0 200 200" fill="none" xmlns="http://www.w3.org/2000/svg">
<g filter="url(#filter0_d_1_578)">
<path d="M85.3583 135.95L50 100.583L61.7833 88.8L85.3583 112.367L132.492 65.225L144.283 77.0166L85.3583 135.95Z" fill="url(#paint0_linear_1_578)"/>
<path fill-rule="evenodd" clip-rule="evenodd" d="M8.33331 100C8.33331 49.375 49.375 8.33331 100 8.33331C150.625 8.33331 191.667 49.375 191.667 100C191.667 150.625 150.625 191.667 100 191.667C49.375 191.667 8.33331 150.625 8.33331 100ZM100 175C90.1508 175 80.3981 173.06 71.2987 169.291C62.1993 165.522 53.9314 159.997 46.967 153.033C40.0026 146.069 34.4781 137.801 30.709 128.701C26.9399 119.602 25 109.849 25 100C25 90.1508 26.9399 80.3981 30.709 71.2987C34.4781 62.1993 40.0026 53.9314 46.967 46.967C53.9314 40.0026 62.1993 34.4781 71.2987 30.709C80.3981 26.9399 90.1508 25 100 25C119.891 25 138.968 32.9017 153.033 46.967C167.098 61.0322 175 80.1087 175 100C175 119.891 167.098 138.968 153.033 153.033C138.968 167.098 119.891 175 100 175Z" fill="url(#paint1_linear_1_578)"/>
</g>
<defs>
<filter id="filter0_d_1_578" x="4.33331" y="8.33331" width="191.333" height="191.333" filterUnits="userSpaceOnUse" color-interpolation-filters="sRGB">
<feFlood flood-opacity="0" result="BackgroundImageFix"/>
<feColorMatrix in="SourceAlpha" type="matrix" values="0 0 0 0 0 0 0 0 0 0 0 0 0 0 0 0 0 0 127 0" result="hardAlpha"/>
<feOffset dy="4"/>
<feGaussianBlur stdDeviation="2"/>
<feComposite in2="hardAlpha" operator="out"/>
<feColorMatrix type="matrix" values="0 0 0 0 0 0 0 0 0 0 0 0 0 0 0 0 0 0 0.25 0"/>
<feBlend mode="normal" in2="BackgroundImageFix" result="effect1_dropShadow_1_578"/>
<feBlend mode="normal" in="SourceGraphic" in2="effect1_dropShadow_1_578" result="shape"/>
</filter>
<linearGradient id="paint0_linear_1_578" x1="136.741" y1="62.9746" x2="112.982" y2="140.787" gradientUnits="userSpaceOnUse">
<stop stop-color="#74AACC"/>
<stop offset="1" stop-color="#203039"/>
</linearGradient>
<linearGradient id="paint1_linear_1_578" x1="177" y1="2.50001" x2="100" y2="191.667" gradientUnits="userSpaceOnUse">
<stop stop-color="#74AACC"/>
<stop offset="1" stop-color="#203039"/>
</linearGradient>
</defs>
</svg>
