<svg width="27" height="19" viewBox="0 0 27 19" fill="none" xmlns="http://www.w3.org/2000/svg">
<path d="M7.91523 1.68329C8.53588 1.07816 9.36841 0.739508 10.2352 0.739578H22.6774C23.4 0.739578 24.241 0.940162 24.9286 1.3667C25.6282 1.79929 26.2698 2.54362 26.2698 3.60937V15.3906C26.2698 16.4564 25.6282 17.1995 24.9286 17.6333C24.2482 18.0409 23.4706 18.2576 22.6774 18.2604H10.2352C9.36841 18.2605 8.53588 17.9218 7.91523 17.3167L1.45065 11.014C1.2486 10.817 1.08802 10.5816 0.978379 10.3216C0.86874 10.0615 0.812256 9.78219 0.812256 9.5C0.812256 9.2178 0.86874 8.93846 0.978379 8.67843C1.08802 8.41841 1.2486 8.18295 1.45065 7.98595L7.91523 1.68329ZM15.9531 6.44291C15.8701 6.35387 15.77 6.28246 15.6589 6.23293C15.5477 6.18339 15.4277 6.15676 15.306 6.15461C15.1843 6.15247 15.0635 6.17485 14.9506 6.22043C14.8378 6.26601 14.7353 6.33385 14.6492 6.41991C14.5632 6.50596 14.4953 6.60847 14.4497 6.72131C14.4042 6.83416 14.3818 6.95503 14.3839 7.07671C14.3861 7.19839 14.4127 7.3184 14.4622 7.42956C14.5118 7.54073 14.5832 7.64078 14.6722 7.72374L16.4485 9.5L14.6722 11.2762C14.5832 11.3592 14.5118 11.4593 14.4622 11.5704C14.4127 11.6816 14.3861 11.8016 14.3839 11.9233C14.3818 12.045 14.4042 12.1658 14.4497 12.2787C14.4953 12.3915 14.5632 12.494 14.6492 12.5801C14.7353 12.6661 14.8378 12.734 14.9506 12.7796C15.0635 12.8251 15.1843 12.8475 15.306 12.8454C15.4277 12.8432 15.5477 12.8166 15.6589 12.7671C15.77 12.7175 15.8701 12.6461 15.9531 12.5571L17.7293 10.7808L19.5056 12.5571C19.5885 12.6461 19.6886 12.7175 19.7997 12.7671C19.9109 12.8166 20.0309 12.8432 20.1526 12.8454C20.2743 12.8475 20.3952 12.8251 20.508 12.7796C20.6208 12.734 20.7233 12.6661 20.8094 12.5801C20.8955 12.494 20.9633 12.3915 21.0089 12.2787C21.0545 12.1658 21.0768 12.045 21.0747 11.9233C21.0725 11.8016 21.0459 11.6816 20.9964 11.5704C20.9469 11.4593 20.8754 11.3592 20.7864 11.2762L19.0101 9.5L20.7864 7.72374C20.8754 7.64078 20.9469 7.54073 20.9964 7.42956C21.0459 7.3184 21.0725 7.19839 21.0747 7.07671C21.0768 6.95503 21.0545 6.83416 21.0089 6.72131C20.9633 6.60847 20.8955 6.50596 20.8094 6.41991C20.7233 6.33385 20.6208 6.26601 20.508 6.22043C20.3952 6.17485 20.2743 6.15247 20.1526 6.15461C20.0309 6.15676 19.9109 6.18339 19.7997 6.23293C19.6886 6.28246 19.5885 6.35387 19.5056 6.44291L17.7293 8.21916L15.9531 6.44291Z" fill="#90DDF0"/>
</svg>
