<svg width="22" height="22" viewBox="0 0 22 22" fill="none" xmlns="http://www.w3.org/2000/svg">
<path d="M22 6.5V18.75C22 19.612 21.6576 20.4386 21.0481 21.0481C20.4386 21.6576 19.612 22 18.75 22H3.25C2.38805 22 1.5614 21.6576 0.951903 21.0481C0.34241 20.4386 0 19.612 0 18.75V6.5H22ZM5.741 14.501C5.40948 14.501 5.09154 14.6327 4.85712 14.8671C4.6227 15.1015 4.491 15.4195 4.491 15.751C4.491 16.0825 4.6227 16.4005 4.85712 16.6349C5.09154 16.8693 5.40948 17.001 5.741 17.001C6.07252 17.001 6.39046 16.8693 6.62488 16.6349C6.8593 16.4005 6.991 16.0825 6.991 15.751C6.991 15.4195 6.8593 15.1015 6.62488 14.8671C6.39046 14.6327 6.07252 14.501 5.741 14.501ZM10.996 14.501C10.6645 14.501 10.3465 14.6327 10.1121 14.8671C9.8777 15.1015 9.746 15.4195 9.746 15.751C9.746 16.0825 9.8777 16.4005 10.1121 16.6349C10.3465 16.8693 10.6645 17.001 10.996 17.001C11.3275 17.001 11.6455 16.8693 11.8799 16.6349C12.1143 16.4005 12.246 16.0825 12.246 15.751C12.246 15.4195 12.1143 15.1015 11.8799 14.8671C11.6455 14.6327 11.3275 14.501 10.996 14.501ZM5.741 9.501C5.40948 9.501 5.09154 9.6327 4.85712 9.86712C4.6227 10.1015 4.491 10.4195 4.491 10.751C4.491 11.0825 4.6227 11.4005 4.85712 11.6349C5.09154 11.8693 5.40948 12.001 5.741 12.001C6.07252 12.001 6.39046 11.8693 6.62488 11.6349C6.8593 11.4005 6.991 11.0825 6.991 10.751C6.991 10.4195 6.8593 10.1015 6.62488 9.86712C6.39046 9.6327 6.07252 9.501 5.741 9.501ZM10.996 9.501C10.6645 9.501 10.3465 9.6327 10.1121 9.86712C9.8777 10.1015 9.746 10.4195 9.746 10.751C9.746 11.0825 9.8777 11.4005 10.1121 11.6349C10.3465 11.8693 10.6645 12.001 10.996 12.001C11.3275 12.001 11.6455 11.8693 11.8799 11.6349C12.1143 11.4005 12.246 11.0825 12.246 10.751C12.246 10.4195 12.1143 10.1015 11.8799 9.86712C11.6455 9.6327 11.3275 9.501 10.996 9.501ZM16.25 9.501C15.9185 9.501 15.6005 9.6327 15.3661 9.86712C15.1317 10.1015 15 10.4195 15 10.751C15 11.0825 15.1317 11.4005 15.3661 11.6349C15.6005 11.8693 15.9185 12.001 16.25 12.001C16.5815 12.001 16.8995 11.8693 17.1339 11.6349C17.3683 11.4005 17.5 11.0825 17.5 10.751C17.5 10.4195 17.3683 10.1015 17.1339 9.86712C16.8995 9.6327 16.5815 9.501 16.25 9.501ZM18.75 0C19.612 0 20.4386 0.34241 21.0481 0.951903C21.6576 1.5614 22 2.38805 22 3.25V5H0V3.25C0 2.38805 0.34241 1.5614 0.951903 0.951903C1.5614 0.34241 2.38805 0 3.25 0H18.75Z" fill="#4E7280"/>
</svg>
