<svg width="133" height="133" viewBox="0 0 133 133" fill="none" xmlns="http://www.w3.org/2000/svg">
<path d="M129.395 73.1094L117.934 84.5645C117.501 84.9968 116.916 85.2428 116.305 85.25H91.8828L73.1328 66.5L91.8828 47.75H116.305C116.924 47.7511 117.519 47.9975 117.957 48.4355L129.418 59.8906C131.161 61.6502 132.137 64.0281 132.132 66.5048C132.128 68.9816 131.144 71.3559 129.395 73.1094ZM30.7871 38.375H43.0625C44.304 38.3756 45.4946 38.8687 46.373 39.7461L66.5 59.8672L86.6269 39.7461C87.5053 38.8687 88.6959 38.3756 89.9375 38.375H102.242C102.706 38.3754 103.16 38.2381 103.545 37.9806C103.931 37.7231 104.232 37.3569 104.409 36.9284C104.587 36.4999 104.633 36.0284 104.543 35.5735C104.452 35.1186 104.229 34.7008 103.9 34.373L73.1387 3.60545C71.3821 1.85935 69.006 0.879272 66.5293 0.879272C64.0525 0.879272 61.6764 1.85935 59.9199 3.60545L29.1289 34.373C28.8007 34.7008 28.5772 35.1186 28.4866 35.5735C28.3961 36.0284 28.4425 36.4999 28.62 36.9284C28.7976 37.3569 29.0982 37.7231 29.484 37.9806C29.8698 38.2381 30.3233 38.3754 30.7871 38.375ZM102.242 94.625H89.9375C88.6959 94.6244 87.5053 94.1313 86.6269 93.2539L66.5 73.1269L46.373 93.2539C45.4946 94.1313 44.304 94.6244 43.0625 94.625H30.7578C30.294 94.6246 29.8405 94.7619 29.4547 95.0194C29.0689 95.2769 28.7683 95.6431 28.5907 96.0716C28.4132 96.5001 28.3668 96.9716 28.4573 97.4265C28.5479 97.8814 28.7714 98.2992 29.0996 98.627L59.8613 129.395C61.6178 131.141 63.994 132.121 66.4707 132.121C68.9474 132.121 71.3235 131.141 73.0801 129.395L103.842 98.627C104.167 98.3027 104.389 97.8903 104.482 97.4407C104.574 96.9912 104.533 96.5244 104.362 96.0982C104.192 95.672 103.9 95.3052 103.523 95.0433C103.147 94.7814 102.701 94.636 102.242 94.625ZM59.9023 66.5L41.1523 47.75H16.6953C16.0755 47.7511 15.4814 47.9975 15.043 48.4355L3.60545 59.8906C1.85935 61.6471 0.879272 64.0233 0.879272 66.5C0.879272 68.9767 1.85935 71.3528 3.60545 73.1094L15.0664 84.5645C15.4991 84.9968 16.0837 85.2428 16.6953 85.25H41.1172L59.9023 66.5Z" fill="#3A5566"/>
</svg>
